<svg width="322" height="643" viewBox="0 0 322 643" fill="none" xmlns="http://www.w3.org/2000/svg">
<path d="M8.53201 111.469C8.53201 51.4622 52.0833 2.52995 106.65 0.0950013C105.235 0.0318561 103.813 0 102.384 0C45.8389 0 0 49.9063 0 111.469C0 173.032 45.8389 222.938 102.384 222.938C103.813 222.938 105.235 222.906 106.65 222.843C52.0836 220.408 8.53201 171.476 8.53201 111.469Z" fill="url(#paint0_linear_38_703)"/>
<path d="M25.596 111.469C25.596 51.4622 69.1473 2.52995 123.714 0.0950013C122.299 0.0318561 120.877 0 119.448 0C62.903 0 17.064 49.9063 17.064 111.469C17.064 173.032 62.903 222.938 119.448 222.938C120.877 222.938 122.299 222.906 123.714 222.843C69.1476 220.408 25.596 171.476 25.596 111.469Z" fill="url(#paint1_linear_38_703)"/>
<path d="M140.778 0.0950013C86.2114 2.52995 42.6601 51.4622 42.6601 111.469C42.6601 171.476 86.2116 220.408 140.778 222.843C139.364 222.906 137.941 222.938 136.512 222.938C79.967 222.938 34.128 173.032 34.128 111.469C34.128 49.9063 79.967 0 136.512 0C137.941 0 139.363 0.0318561 140.778 0.0950013Z" fill="url(#paint2_linear_38_703)"/>
<path d="M59.7241 111.469C59.7241 51.4622 103.275 2.52995 157.842 0.0950013C156.427 0.0318561 155.005 0 153.576 0C97.031 0 51.1921 49.9063 51.1921 111.469C51.1921 173.032 97.031 222.938 153.576 222.938C155.005 222.938 156.428 222.906 157.842 222.843C103.276 220.408 59.7241 171.476 59.7241 111.469Z" fill="url(#paint3_linear_38_703)"/>
<path d="M174.906 0.0950013C120.339 2.52995 76.7881 51.4622 76.7881 111.469C76.7881 171.476 120.34 220.408 174.906 222.843C173.492 222.906 172.069 222.938 170.64 222.938C114.095 222.938 68.2561 173.032 68.2561 111.469C68.2561 49.9063 114.095 0 170.64 0C172.069 0 173.491 0.0318561 174.906 0.0950013Z" fill="url(#paint4_linear_38_703)"/>
<path d="M93.8521 111.469C93.8521 51.4622 137.403 2.52995 191.97 0.0950013C190.555 0.0318561 189.133 0 187.704 0C131.159 0 85.3201 49.9063 85.3201 111.469C85.3201 173.032 131.159 222.938 187.704 222.938C189.133 222.938 190.556 222.906 191.97 222.843C137.404 220.408 93.8521 171.476 93.8521 111.469Z" fill="url(#paint5_linear_38_703)"/>
<path d="M209.034 0.0950013C154.467 2.52995 110.916 51.4622 110.916 111.469C110.916 171.476 154.468 220.408 209.034 222.843C207.62 222.906 206.197 222.938 204.768 222.938C148.223 222.938 102.384 173.032 102.384 111.469C102.384 49.9063 148.223 0 204.768 0C206.197 0 207.62 0.0318561 209.034 0.0950013Z" fill="url(#paint6_linear_38_703)"/>
<path d="M127.98 111.469C127.98 51.4622 171.531 2.52995 226.098 0.0950013C224.684 0.0318561 223.261 0 221.832 0C165.287 0 119.448 49.9063 119.448 111.469C119.448 173.032 165.287 222.938 221.832 222.938C223.261 222.938 224.684 222.906 226.098 222.843C171.532 220.408 127.98 171.476 127.98 111.469Z" fill="url(#paint7_linear_38_703)"/>
<path d="M243.162 0.0950013C188.596 2.52995 145.044 51.4622 145.044 111.469C145.044 171.476 188.596 220.408 243.163 222.843C241.748 222.906 240.325 222.938 238.896 222.938C182.351 222.938 136.512 173.032 136.512 111.469C136.512 49.9063 182.351 0 238.896 0C240.325 0 241.748 0.0318561 243.162 0.0950013Z" fill="url(#paint8_linear_38_703)"/>
<path d="M162.108 111.469C162.108 51.4622 205.66 2.52995 260.226 0.0950013C258.812 0.0318561 257.389 0 255.96 0C199.415 0 153.576 49.9063 153.576 111.469C153.576 173.032 199.415 222.938 255.96 222.938C257.389 222.938 258.812 222.906 260.227 222.843C205.66 220.408 162.108 171.476 162.108 111.469Z" fill="url(#paint9_linear_38_703)"/>
<path d="M277.29 0.0950013C222.724 2.52995 179.172 51.4622 179.172 111.469C179.172 171.476 222.724 220.408 277.291 222.843C275.876 222.906 274.453 222.938 273.024 222.938C216.479 222.938 170.64 173.032 170.64 111.469C170.64 49.9063 216.479 0 273.024 0C274.453 0 275.876 0.0318561 277.29 0.0950013Z" fill="url(#paint10_linear_38_703)"/>
<path d="M196.236 111.469C196.236 51.4622 239.788 2.52995 294.354 0.0950013C292.94 0.0318561 291.517 0 290.088 0C233.543 0 187.704 49.9063 187.704 111.469C187.704 173.032 233.543 222.938 290.088 222.938C291.517 222.938 292.94 222.906 294.355 222.843C239.788 220.408 196.236 171.476 196.236 111.469Z" fill="url(#paint11_linear_38_703)"/>
<path d="M8.53207 531.408C8.53207 471.401 52.0834 422.469 106.65 420.034C105.235 419.971 103.813 419.939 102.384 419.939C45.839 419.939 6.10352e-05 469.846 6.10352e-05 531.408C6.10352e-05 592.971 45.839 642.877 102.384 642.877C103.813 642.877 105.236 642.845 106.65 642.782C52.0836 640.347 8.53207 591.415 8.53207 531.408Z" fill="url(#paint12_linear_38_703)"/>
<path d="M25.5961 531.408C25.5961 471.401 69.1474 422.469 123.714 420.034C122.299 419.971 120.877 419.939 119.448 419.939C62.903 419.939 17.0641 469.846 17.0641 531.408C17.0641 592.971 62.903 642.877 119.448 642.877C120.877 642.877 122.3 642.845 123.714 642.782C69.1476 640.347 25.5961 591.415 25.5961 531.408Z" fill="url(#paint13_linear_38_703)"/>
<path d="M140.778 420.034C86.2114 422.469 42.6601 471.401 42.6601 531.408C42.6601 591.415 86.2117 640.347 140.778 642.782C139.364 642.845 137.941 642.877 136.512 642.877C79.9671 642.877 34.1281 592.971 34.1281 531.408C34.1281 469.846 79.9671 419.939 136.512 419.939C137.941 419.939 139.363 419.971 140.778 420.034Z" fill="url(#paint14_linear_38_703)"/>
<path d="M59.7241 531.408C59.7241 471.401 103.275 422.469 157.842 420.034C156.427 419.971 155.005 419.939 153.576 419.939C97.0311 419.939 51.1921 469.846 51.1921 531.408C51.1921 592.971 97.0311 642.877 153.576 642.877C155.005 642.877 156.428 642.845 157.842 642.782C103.276 640.347 59.7241 591.415 59.7241 531.408Z" fill="url(#paint15_linear_38_703)"/>
<path d="M174.906 420.034C120.339 422.469 76.7882 471.401 76.7882 531.408C76.7882 591.415 120.34 640.347 174.906 642.782C173.492 642.845 172.069 642.877 170.64 642.877C114.095 642.877 68.2562 592.971 68.2562 531.408C68.2562 469.846 114.095 419.939 170.64 419.939C172.069 419.939 173.492 419.971 174.906 420.034Z" fill="url(#paint16_linear_38_703)"/>
<path d="M93.8522 531.408C93.8522 471.401 137.404 422.469 191.97 420.034C190.556 419.971 189.133 419.939 187.704 419.939C131.159 419.939 85.3202 469.846 85.3202 531.408C85.3202 592.971 131.159 642.877 187.704 642.877C189.133 642.877 190.556 642.845 191.97 642.782C137.404 640.347 93.8522 591.415 93.8522 531.408Z" fill="url(#paint17_linear_38_703)"/>
<path d="M209.034 420.034C154.468 422.469 110.916 471.401 110.916 531.408C110.916 591.415 154.468 640.347 209.035 642.782C207.62 642.845 206.197 642.877 204.768 642.877C148.223 642.877 102.384 592.971 102.384 531.408C102.384 469.846 148.223 419.939 204.768 419.939C206.197 419.939 207.62 419.971 209.034 420.034Z" fill="url(#paint18_linear_38_703)"/>
<path d="M127.98 531.408C127.98 471.401 171.532 422.469 226.098 420.034C224.684 419.971 223.261 419.939 221.832 419.939C165.287 419.939 119.448 469.846 119.448 531.408C119.448 592.971 165.287 642.877 221.832 642.877C223.261 642.877 224.684 642.845 226.099 642.782C171.532 640.347 127.98 591.415 127.98 531.408Z" fill="url(#paint19_linear_38_703)"/>
<path d="M243.162 420.034C188.596 422.469 145.044 471.401 145.044 531.408C145.044 591.415 188.596 640.347 243.163 642.782C241.748 642.845 240.325 642.877 238.896 642.877C182.351 642.877 136.512 592.971 136.512 531.408C136.512 469.846 182.351 419.939 238.896 419.939C240.325 419.939 241.748 419.971 243.162 420.034Z" fill="url(#paint20_linear_38_703)"/>
<path d="M162.108 531.408C162.108 471.401 205.66 422.469 260.226 420.034C258.812 419.971 257.389 419.939 255.96 419.939C199.415 419.939 153.576 469.846 153.576 531.408C153.576 592.971 199.415 642.877 255.96 642.877C257.389 642.877 258.812 642.845 260.227 642.782C205.66 640.347 162.108 591.415 162.108 531.408Z" fill="url(#paint21_linear_38_703)"/>
<path d="M277.29 420.034C222.724 422.469 179.172 471.401 179.172 531.408C179.172 591.415 222.724 640.347 277.291 642.782C275.876 642.845 274.454 642.877 273.024 642.877C216.479 642.877 170.64 592.971 170.64 531.408C170.64 469.846 216.479 419.939 273.024 419.939C274.453 419.939 275.876 419.971 277.29 420.034Z" fill="url(#paint22_linear_38_703)"/>
<path d="M196.236 531.408C196.236 471.401 239.788 422.469 294.354 420.034C292.94 419.971 291.517 419.939 290.088 419.939C233.543 419.939 187.704 469.846 187.704 531.408C187.704 592.971 233.543 642.877 290.088 642.877C291.518 642.877 292.94 642.845 294.355 642.782C239.788 640.347 196.236 591.415 196.236 531.408Z" fill="url(#paint23_linear_38_703)"/>
<path d="M312.783 325.121C312.783 265.115 268.591 216.182 213.221 213.747C214.657 213.684 216.1 213.652 217.55 213.652C274.927 213.652 321.44 263.559 321.44 325.121C321.44 386.684 274.927 436.59 217.55 436.59C216.1 436.59 214.657 436.558 213.221 436.495C268.591 434.06 312.783 385.128 312.783 325.121Z" fill="url(#paint24_linear_38_703)"/>
<path d="M295.468 325.121C295.468 265.115 251.276 216.182 195.906 213.747C197.342 213.684 198.785 213.652 200.235 213.652C257.612 213.652 304.125 263.559 304.125 325.121C304.125 386.684 257.612 436.59 200.235 436.59C198.785 436.59 197.342 436.558 195.906 436.495C251.276 434.06 295.468 385.128 295.468 325.121Z" fill="url(#paint25_linear_38_703)"/>
<path d="M178.592 213.747C233.961 216.182 278.153 265.115 278.153 325.121C278.153 385.128 233.961 434.06 178.591 436.495C180.027 436.558 181.47 436.59 182.92 436.59C240.297 436.59 286.81 386.684 286.81 325.121C286.81 263.559 240.297 213.652 182.92 213.652C181.47 213.652 180.027 213.684 178.592 213.747Z" fill="url(#paint26_linear_38_703)"/>
<path d="M260.838 325.121C260.838 265.115 216.646 216.182 161.277 213.747C162.712 213.684 164.155 213.652 165.605 213.652C222.982 213.652 269.495 263.559 269.495 325.121C269.495 386.684 222.982 436.59 165.605 436.59C164.155 436.59 162.712 436.558 161.276 436.495C216.646 434.06 260.838 385.128 260.838 325.121Z" fill="url(#paint27_linear_38_703)"/>
<path d="M143.962 213.747C199.331 216.182 243.523 265.115 243.523 325.121C243.523 385.128 199.331 434.06 143.961 436.495C145.397 436.558 146.84 436.59 148.29 436.59C205.667 436.59 252.18 386.684 252.18 325.121C252.18 263.559 205.667 213.652 148.29 213.652C146.84 213.652 145.397 213.684 143.962 213.747Z" fill="url(#paint28_linear_38_703)"/>
<path d="M226.208 325.121C226.208 265.115 182.016 216.182 126.647 213.747C128.082 213.684 129.525 213.652 130.975 213.652C188.352 213.652 234.865 263.559 234.865 325.121C234.865 386.684 188.352 436.59 130.975 436.59C129.525 436.59 128.082 436.558 126.646 436.495C182.016 434.06 226.208 385.128 226.208 325.121Z" fill="url(#paint29_linear_38_703)"/>
<path d="M109.332 213.747C164.701 216.182 208.893 265.115 208.893 325.121C208.893 385.128 164.701 434.06 109.331 436.495C110.767 436.558 112.21 436.59 113.66 436.59C171.037 436.59 217.55 386.684 217.55 325.121C217.55 263.559 171.037 213.652 113.66 213.652C112.21 213.652 110.767 213.684 109.332 213.747Z" fill="url(#paint30_linear_38_703)"/>
<path d="M191.578 325.121C191.578 265.115 147.386 216.182 92.0166 213.747C93.4522 213.684 94.8954 213.652 96.3454 213.652C153.722 213.652 200.235 263.559 200.235 325.121C200.235 386.684 153.722 436.59 96.3454 436.59C94.8953 436.59 93.4521 436.558 92.0165 436.495C147.386 434.06 191.578 385.128 191.578 325.121Z" fill="url(#paint31_linear_38_703)"/>
<path d="M74.7017 213.747C130.071 216.182 174.263 265.115 174.263 325.121C174.263 385.128 130.071 434.06 74.7015 436.495C76.1372 436.558 77.5803 436.59 79.0304 436.59C136.407 436.59 182.92 386.684 182.92 325.121C182.92 263.559 136.407 213.652 79.0304 213.652C77.5804 213.652 76.1373 213.684 74.7017 213.747Z" fill="url(#paint32_linear_38_703)"/>
<path d="M156.948 325.121C156.948 265.115 112.756 216.182 57.3867 213.747C58.8223 213.684 60.2654 213.652 61.7154 213.652C119.092 213.652 165.605 263.559 165.605 325.121C165.605 386.684 119.092 436.59 61.7154 436.59C60.2654 436.59 58.8222 436.558 57.3865 436.495C112.756 434.06 156.948 385.128 156.948 325.121Z" fill="url(#paint33_linear_38_703)"/>
<path d="M40.0717 213.747C95.441 216.182 139.633 265.115 139.633 325.121C139.633 385.128 95.4408 434.06 40.0715 436.495C41.5072 436.558 42.9503 436.59 44.4005 436.59C101.777 436.59 148.29 386.684 148.29 325.121C148.29 263.559 101.777 213.652 44.4005 213.652C42.9504 213.652 41.5073 213.684 40.0717 213.747Z" fill="url(#paint34_linear_38_703)"/>
<path d="M122.318 325.121C122.318 265.115 78.126 216.182 22.7567 213.747C24.1923 213.684 25.6354 213.652 27.0855 213.652C84.4623 213.652 130.975 263.559 130.975 325.121C130.975 386.684 84.4623 436.59 27.0855 436.59C25.6354 436.59 24.1922 436.558 22.7566 436.495C78.1258 434.06 122.318 385.128 122.318 325.121Z" fill="url(#paint35_linear_38_703)"/>
<defs>
<linearGradient id="paint0_linear_38_703" x1="147.177" y1="0" x2="147.177" y2="222.938" gradientUnits="userSpaceOnUse">
<stop stop-color="#086900"/>
<stop offset="0.512772" stop-color="#57C700"/>
<stop offset="1" stop-color="#0B8A00"/>
</linearGradient>
<linearGradient id="paint1_linear_38_703" x1="147.177" y1="0" x2="147.177" y2="222.938" gradientUnits="userSpaceOnUse">
<stop stop-color="#086900"/>
<stop offset="0.512772" stop-color="#57C700"/>
<stop offset="1" stop-color="#0B8A00"/>
</linearGradient>
<linearGradient id="paint2_linear_38_703" x1="147.177" y1="0" x2="147.177" y2="222.938" gradientUnits="userSpaceOnUse">
<stop stop-color="#086900"/>
<stop offset="0.512772" stop-color="#57C700"/>
<stop offset="1" stop-color="#0B8A00"/>
</linearGradient>
<linearGradient id="paint3_linear_38_703" x1="147.177" y1="0" x2="147.177" y2="222.938" gradientUnits="userSpaceOnUse">
<stop stop-color="#086900"/>
<stop offset="0.512772" stop-color="#57C700"/>
<stop offset="1" stop-color="#0B8A00"/>
</linearGradient>
<linearGradient id="paint4_linear_38_703" x1="147.177" y1="0" x2="147.177" y2="222.938" gradientUnits="userSpaceOnUse">
<stop stop-color="#086900"/>
<stop offset="0.512772" stop-color="#57C700"/>
<stop offset="1" stop-color="#0B8A00"/>
</linearGradient>
<linearGradient id="paint5_linear_38_703" x1="147.177" y1="0" x2="147.177" y2="222.938" gradientUnits="userSpaceOnUse">
<stop stop-color="#086900"/>
<stop offset="0.512772" stop-color="#57C700"/>
<stop offset="1" stop-color="#0B8A00"/>
</linearGradient>
<linearGradient id="paint6_linear_38_703" x1="147.177" y1="0" x2="147.177" y2="222.938" gradientUnits="userSpaceOnUse">
<stop stop-color="#086900"/>
<stop offset="0.512772" stop-color="#57C700"/>
<stop offset="1" stop-color="#0B8A00"/>
</linearGradient>
<linearGradient id="paint7_linear_38_703" x1="147.177" y1="0" x2="147.177" y2="222.938" gradientUnits="userSpaceOnUse">
<stop stop-color="#086900"/>
<stop offset="0.512772" stop-color="#57C700"/>
<stop offset="1" stop-color="#0B8A00"/>
</linearGradient>
<linearGradient id="paint8_linear_38_703" x1="147.177" y1="0" x2="147.177" y2="222.938" gradientUnits="userSpaceOnUse">
<stop stop-color="#086900"/>
<stop offset="0.512772" stop-color="#57C700"/>
<stop offset="1" stop-color="#0B8A00"/>
</linearGradient>
<linearGradient id="paint9_linear_38_703" x1="147.177" y1="0" x2="147.177" y2="222.938" gradientUnits="userSpaceOnUse">
<stop stop-color="#086900"/>
<stop offset="0.512772" stop-color="#57C700"/>
<stop offset="1" stop-color="#0B8A00"/>
</linearGradient>
<linearGradient id="paint10_linear_38_703" x1="147.177" y1="0" x2="147.177" y2="222.938" gradientUnits="userSpaceOnUse">
<stop stop-color="#086900"/>
<stop offset="0.512772" stop-color="#57C700"/>
<stop offset="1" stop-color="#0B8A00"/>
</linearGradient>
<linearGradient id="paint11_linear_38_703" x1="147.177" y1="0" x2="147.177" y2="222.938" gradientUnits="userSpaceOnUse">
<stop stop-color="#086900"/>
<stop offset="0.512772" stop-color="#57C700"/>
<stop offset="1" stop-color="#0B8A00"/>
</linearGradient>
<linearGradient id="paint12_linear_38_703" x1="147.177" y1="419.939" x2="147.177" y2="642.877" gradientUnits="userSpaceOnUse">
<stop stop-color="#086900"/>
<stop offset="0.512772" stop-color="#57C700"/>
<stop offset="1" stop-color="#0B8A00"/>
</linearGradient>
<linearGradient id="paint13_linear_38_703" x1="147.177" y1="419.939" x2="147.177" y2="642.877" gradientUnits="userSpaceOnUse">
<stop stop-color="#086900"/>
<stop offset="0.512772" stop-color="#57C700"/>
<stop offset="1" stop-color="#0B8A00"/>
</linearGradient>
<linearGradient id="paint14_linear_38_703" x1="147.177" y1="419.939" x2="147.177" y2="642.877" gradientUnits="userSpaceOnUse">
<stop stop-color="#086900"/>
<stop offset="0.512772" stop-color="#57C700"/>
<stop offset="1" stop-color="#0B8A00"/>
</linearGradient>
<linearGradient id="paint15_linear_38_703" x1="147.177" y1="419.939" x2="147.177" y2="642.877" gradientUnits="userSpaceOnUse">
<stop stop-color="#086900"/>
<stop offset="0.512772" stop-color="#57C700"/>
<stop offset="1" stop-color="#0B8A00"/>
</linearGradient>
<linearGradient id="paint16_linear_38_703" x1="147.177" y1="419.939" x2="147.177" y2="642.877" gradientUnits="userSpaceOnUse">
<stop stop-color="#086900"/>
<stop offset="0.512772" stop-color="#57C700"/>
<stop offset="1" stop-color="#0B8A00"/>
</linearGradient>
<linearGradient id="paint17_linear_38_703" x1="147.177" y1="419.939" x2="147.177" y2="642.877" gradientUnits="userSpaceOnUse">
<stop stop-color="#086900"/>
<stop offset="0.512772" stop-color="#57C700"/>
<stop offset="1" stop-color="#0B8A00"/>
</linearGradient>
<linearGradient id="paint18_linear_38_703" x1="147.177" y1="419.939" x2="147.177" y2="642.877" gradientUnits="userSpaceOnUse">
<stop stop-color="#086900"/>
<stop offset="0.512772" stop-color="#57C700"/>
<stop offset="1" stop-color="#0B8A00"/>
</linearGradient>
<linearGradient id="paint19_linear_38_703" x1="147.177" y1="419.939" x2="147.177" y2="642.877" gradientUnits="userSpaceOnUse">
<stop stop-color="#086900"/>
<stop offset="0.512772" stop-color="#57C700"/>
<stop offset="1" stop-color="#0B8A00"/>
</linearGradient>
<linearGradient id="paint20_linear_38_703" x1="147.177" y1="419.939" x2="147.177" y2="642.877" gradientUnits="userSpaceOnUse">
<stop stop-color="#086900"/>
<stop offset="0.512772" stop-color="#57C700"/>
<stop offset="1" stop-color="#0B8A00"/>
</linearGradient>
<linearGradient id="paint21_linear_38_703" x1="147.177" y1="419.939" x2="147.177" y2="642.877" gradientUnits="userSpaceOnUse">
<stop stop-color="#086900"/>
<stop offset="0.512772" stop-color="#57C700"/>
<stop offset="1" stop-color="#0B8A00"/>
</linearGradient>
<linearGradient id="paint22_linear_38_703" x1="147.177" y1="419.939" x2="147.177" y2="642.877" gradientUnits="userSpaceOnUse">
<stop stop-color="#086900"/>
<stop offset="0.512772" stop-color="#57C700"/>
<stop offset="1" stop-color="#0B8A00"/>
</linearGradient>
<linearGradient id="paint23_linear_38_703" x1="147.177" y1="419.939" x2="147.177" y2="642.877" gradientUnits="userSpaceOnUse">
<stop stop-color="#086900"/>
<stop offset="0.512772" stop-color="#57C700"/>
<stop offset="1" stop-color="#0B8A00"/>
</linearGradient>
<linearGradient id="paint24_linear_38_703" x1="172.098" y1="213.652" x2="172.098" y2="436.59" gradientUnits="userSpaceOnUse">
<stop stop-color="#086900"/>
<stop offset="0.512772" stop-color="#57C700"/>
<stop offset="1" stop-color="#0B8A00"/>
</linearGradient>
<linearGradient id="paint25_linear_38_703" x1="172.098" y1="213.652" x2="172.098" y2="436.59" gradientUnits="userSpaceOnUse">
<stop stop-color="#086900"/>
<stop offset="0.512772" stop-color="#57C700"/>
<stop offset="1" stop-color="#0B8A00"/>
</linearGradient>
<linearGradient id="paint26_linear_38_703" x1="172.098" y1="213.652" x2="172.098" y2="436.59" gradientUnits="userSpaceOnUse">
<stop stop-color="#086900"/>
<stop offset="0.512772" stop-color="#57C700"/>
<stop offset="1" stop-color="#0B8A00"/>
</linearGradient>
<linearGradient id="paint27_linear_38_703" x1="172.098" y1="213.652" x2="172.098" y2="436.59" gradientUnits="userSpaceOnUse">
<stop stop-color="#086900"/>
<stop offset="0.512772" stop-color="#57C700"/>
<stop offset="1" stop-color="#0B8A00"/>
</linearGradient>
<linearGradient id="paint28_linear_38_703" x1="172.098" y1="213.652" x2="172.098" y2="436.59" gradientUnits="userSpaceOnUse">
<stop stop-color="#086900"/>
<stop offset="0.512772" stop-color="#57C700"/>
<stop offset="1" stop-color="#0B8A00"/>
</linearGradient>
<linearGradient id="paint29_linear_38_703" x1="172.098" y1="213.652" x2="172.098" y2="436.59" gradientUnits="userSpaceOnUse">
<stop stop-color="#086900"/>
<stop offset="0.512772" stop-color="#57C700"/>
<stop offset="1" stop-color="#0B8A00"/>
</linearGradient>
<linearGradient id="paint30_linear_38_703" x1="172.098" y1="213.652" x2="172.098" y2="436.59" gradientUnits="userSpaceOnUse">
<stop stop-color="#086900"/>
<stop offset="0.512772" stop-color="#57C700"/>
<stop offset="1" stop-color="#0B8A00"/>
</linearGradient>
<linearGradient id="paint31_linear_38_703" x1="172.098" y1="213.652" x2="172.098" y2="436.59" gradientUnits="userSpaceOnUse">
<stop stop-color="#086900"/>
<stop offset="0.512772" stop-color="#57C700"/>
<stop offset="1" stop-color="#0B8A00"/>
</linearGradient>
<linearGradient id="paint32_linear_38_703" x1="172.098" y1="213.652" x2="172.098" y2="436.59" gradientUnits="userSpaceOnUse">
<stop stop-color="#086900"/>
<stop offset="0.512772" stop-color="#57C700"/>
<stop offset="1" stop-color="#0B8A00"/>
</linearGradient>
<linearGradient id="paint33_linear_38_703" x1="172.098" y1="213.652" x2="172.098" y2="436.59" gradientUnits="userSpaceOnUse">
<stop stop-color="#086900"/>
<stop offset="0.512772" stop-color="#57C700"/>
<stop offset="1" stop-color="#0B8A00"/>
</linearGradient>
<linearGradient id="paint34_linear_38_703" x1="172.098" y1="213.652" x2="172.098" y2="436.59" gradientUnits="userSpaceOnUse">
<stop stop-color="#086900"/>
<stop offset="0.512772" stop-color="#57C700"/>
<stop offset="1" stop-color="#0B8A00"/>
</linearGradient>
<linearGradient id="paint35_linear_38_703" x1="172.098" y1="213.652" x2="172.098" y2="436.59" gradientUnits="userSpaceOnUse">
<stop stop-color="#086900"/>
<stop offset="0.512772" stop-color="#57C700"/>
<stop offset="1" stop-color="#0B8A00"/>
</linearGradient>
</defs>
</svg>
