<svg width="1440" height="202" viewBox="0 0 1440 202" fill="none" xmlns="http://www.w3.org/2000/svg">
<path d="M-800.342 347.998C-597.718 331.043 -454.714 277.115 -360.998 230.427C-266.229 183.213 -197.976 131.419 -73.2582 103.574C64.2999 72.6339 154.18 86.4949 189.73 94.2917C239.017 105.121 235.954 112.484 316.583 137.607C471.467 185.873 500.891 164.401 570.289 196.393C685.353 249.424 651.041 329.898 771.397 419.159C858.554 483.824 1002.86 535.276 1133.39 499.603C1256.32 466.002 1270.15 381.629 1399.47 369.656C1452.6 364.736 1496.78 375.658 1585.11 397.502C1698.32 425.347 1774.34 459.691 1804.78 471.757C1894.97 507.554 2040.55 530.079 2278.16 459.381" stroke="#1DDA0D" stroke-width="3" stroke-miterlimit="10"/>
<path d="M-801.704 375.287C-605.7 360.652 -459.17 311.829 -356.945 263.439C-273.902 223.589 -210.569 179.902 -123.288 148.684C-104.198 141.877 -84.0871 135.287 -62.4293 129.594C74.046 93.7657 163.586 99.6752 200.961 103.295C251.083 108.122 251.083 113.629 330.103 138.041C385.795 155.212 425.46 165.02 456.183 171.456C508.409 182.377 534.553 183.12 575.765 204.128C591.142 211.902 605.573 221.422 618.771 232.5C679.815 283.705 677.216 348.617 778.482 417.427C866.63 477.326 1009.97 522.622 1138.28 487.196C1148.45 484.383 1158.46 481.058 1168.29 477.233C1267.48 438.59 1289.76 370.615 1403.43 359.941C1415.41 358.799 1427.45 358.458 1439.48 358.92C1479.89 360.343 1521.65 370.429 1587.8 386.765C1697.39 413.992 1772.24 447.686 1805.81 461.021C1830.39 470.697 1855.75 478.294 1881.61 483.731C1971.09 502.79 2097.57 504.77 2275.5 456.132" stroke="#1DDA0D" stroke-width="3" stroke-miterlimit="10"/>
<path d="M-803.065 404.989C-613.714 392.613 -463.501 349.297 -352.891 298.618C-265.053 258.396 -198.781 212.451 -113.108 179.655C-93.5545 172.136 -73.2889 164.525 -51.5382 157.997C83.8541 117.249 172.93 112.33 212.285 114.681C262.995 117.775 266.368 117.187 343.655 140.856C397.769 157.471 437.279 168.702 467.414 176.592C518.186 189.803 542.598 192.464 581.149 214.276C595.838 222.677 609.645 232.534 622.36 243.7C681.332 294.565 684.24 355.578 785.63 418.2C874.767 473.304 1017.15 512.443 1143.23 477.264C1153.91 474.17 1163.78 471.076 1173.03 467.364C1275.34 428.008 1297.99 363.189 1407.49 352.886C1419.37 351.716 1431.32 351.334 1443.25 351.742C1484.34 352.948 1526.05 362.756 1590.59 378.938C1696.59 405.422 1770.19 438.559 1806.92 452.853C1831.31 462.442 1856.43 470.057 1882.04 475.625C1970.71 495.117 2096.61 499.232 2272.78 455.421" stroke="#1DDA0D" stroke-width="3" stroke-miterlimit="10"/>
<path d="M-804.395 436.702C-621.696 426.709 -467.895 388.498 -348.807 335.962C-256.298 295.122 -186.993 247.072 -102.991 212.667C-82.9422 204.437 -62.491 195.836 -40.7095 188.442C93.6 142.836 182.057 133.276 223.547 128.078C274.876 121.673 281.59 122.756 357.176 145.683C409.773 161.679 449.129 174.364 478.831 183.708C528.118 199.178 550.859 203.819 586.749 226.405C600.638 235.445 613.741 245.639 625.918 256.88C682.817 307.374 691.418 364.458 792.684 420.861C882.935 471.169 1024.24 504.182 1148.09 469.22C1158.67 466.126 1168.48 463.032 1177.67 459.412C1283.05 419.19 1306.16 357.651 1411.42 347.41C1423.22 346.211 1435.08 345.788 1446.94 346.142C1488.7 347.101 1530.47 356.692 1593.31 372.564C1695.66 398.275 1768.09 430.824 1807.94 446.325C1832.18 455.768 1857.1 463.39 1882.47 469.127C1970.34 489.052 2095.65 495.333 2270.03 456.318" stroke="#1DDA0D" stroke-width="3" stroke-miterlimit="10"/>
<path d="M-805.757 468.477C-629.679 460.804 -472.35 427.761 -344.754 373.338C-247.542 331.847 -175.236 281.663 -92.843 245.711C-72.3299 236.769 -51.724 227.147 -29.8496 218.917C103.377 168.547 191.029 151.407 234.84 141.568C286.602 129.934 296.719 128.418 370.727 150.602C421.933 166.072 460.948 180.119 490.155 190.824C537.957 208.521 558.996 215.204 592.256 238.533C605.321 248.192 617.724 258.714 629.384 270.03C684.24 320.09 698.534 373.276 799.707 423.646C891.072 469.127 1031.26 496.045 1152.92 461.33C1163.37 458.236 1173.12 455.142 1182.28 451.584C1290.75 410.527 1314.27 352.577 1415.32 342.212C1427.03 341.029 1438.81 340.564 1450.59 340.82C1492.97 341.562 1534.62 350.906 1596 366.469C1694.76 391.468 1765.99 423.46 1808.96 440.075C1833.03 449.426 1857.73 457.067 1882.88 462.939C1969.97 483.329 2094.69 491.713 2267.3 457.556" stroke="#1DDA0D" stroke-width="3" stroke-miterlimit="10"/>
<path d="M-807.056 488.96C-637.599 483.607 -476.712 455.761 -340.639 399.451C-238.755 357.28 -163.417 304.868 -82.6329 267.493C-61.6867 257.809 -40.8642 247.289 -18.9279 238.131C113.154 182.996 200.095 158.43 246.102 143.734C298.328 127.088 312.035 122.725 384.248 144.198C424.127 156.098 463.271 170.335 501.479 186.833C547.888 206.727 567.164 215.514 597.701 239.43C611.036 249.919 621.618 261.088 633.065 271.948C685.879 321.452 705.898 370.955 806.885 415.137C899.457 455.761 1038.47 476.615 1157.9 442.148C1168.26 439.054 1177.95 435.96 1187.04 432.464C1298.64 390.664 1322.56 335.777 1419.4 325.721C1431.02 324.535 1442.71 324.039 1454.39 324.236C1497.46 324.824 1539.04 333.828 1598.76 348.988C1693.9 373.183 1763.94 404.68 1810.01 422.408C1833.93 431.66 1858.44 439.309 1883.37 445.304C1969.66 466.157 2093.76 476.708 2264.61 447.346" stroke="#1DDA0D" stroke-width="3" stroke-miterlimit="10"/>
<path d="M-808.479 503.563C-645.674 500.469 -481.23 477.79 -336.648 419.654C-230.092 376.803 -151.783 322.101 -72.5465 283.519C-51.1362 273.062 -30.159 261.614 -8.12992 251.589C122.962 191.783 209.222 159.822 257.395 140.206C309.993 118.703 327.257 111.339 397.8 132.069C437.326 143.686 475.789 158.653 512.772 176.808C557.665 198.837 575.301 209.79 603.178 234.542C615.554 245.463 625.3 257.097 636.654 268.08C687.458 317.275 713.23 362.509 813.97 400.843C907.811 436.548 1045.62 451.399 1162.82 417.148C1173.06 414.054 1182.65 410.96 1191.74 407.526C1306.47 365.077 1330.88 313.345 1423.39 303.661C1434.93 302.444 1446.53 301.906 1458.14 302.052C1501.82 302.424 1543.41 311.149 1601.48 326.123C1693 349.607 1761.84 380.516 1811.07 399.42C1834.82 408.554 1859.11 416.211 1883.81 422.346C1969.32 443.664 2092.83 456.38 2261.92 431.783" stroke="#1DDA0D" stroke-width="3" stroke-miterlimit="10"/>
<path d="M-809.81 518.383C-653.657 517.672 -485.716 500.036 -332.564 440.075C-221.367 396.512 -140.119 339.459 -62.4291 299.484C-40.5547 288.191 -19.3609 275.815 2.73006 264.987C132.77 200.57 218.411 161.338 268.657 136.586C321.966 110.35 342.479 99.8919 411.32 119.879C450.561 131.374 488.388 147.232 524.096 167.155C567.411 191.257 583.438 204.499 608.685 229.87C620.009 241.256 628.981 253.26 640.213 264.461C689.035 313.129 720.656 354.341 821.086 386.766C916.226 417.489 1052.73 426.368 1167.61 392.397C1177.76 389.303 1187.29 386.209 1196.32 382.805C1314.17 339.49 1338.86 291.007 1427.29 281.385C1438.74 280.166 1450.24 279.588 1461.76 279.652C1506.12 279.652 1547.64 288.253 1604.08 302.981C1692.01 325.659 1759.61 356.073 1811.99 376.06C1835.58 385.117 1859.67 392.803 1884.15 399.08C1968.86 420.737 2091.78 435.619 2259.07 415.911" stroke="#1DDA0D" stroke-width="3" stroke-miterlimit="10"/>
<path d="M-811.171 533.265C-661.639 534.874 -490.171 522.344 -328.511 460.557C-212.642 416.282 -128.454 356.847 -52.2808 315.666C-30.0042 303.63 -8.56296 290.419 13.559 278.538C142.578 209.511 227.662 163.009 279.95 133.121C333.909 102.181 357.702 88.5678 424.872 107.812C463.814 119.175 501.01 135.832 535.42 157.316C577.405 183.522 591.544 199.054 614.161 225.043C624.464 236.924 632.725 249.238 643.802 260.655C690.644 308.828 728.051 345.925 828.172 372.533C924.673 398.182 1059.85 401.214 1172.59 367.459C1182.65 364.365 1192.12 361.271 1201.09 357.961C1322.09 313.995 1347.12 268.606 1431.37 259.17C1442.74 257.949 1454.16 257.329 1465.59 257.313C1510.61 257.035 1552.22 265.451 1606.96 279.868C1691.24 301.805 1757.66 331.693 1813.17 352.794C1836.58 361.788 1860.46 369.524 1884.7 375.967C1968.64 398.182 2090.98 415.106 2256.51 400.224" stroke="#1DDA0D" stroke-width="3" stroke-miterlimit="10"/>
<path d="M-812.532 548.085C-669.622 551.922 -494.565 544.465 -324.396 480.884C-203.731 435.867 -116.79 374.018 -42.0708 331.693C-19.361 318.822 2.2968 304.775 24.4806 292.028C152.447 218.484 237.006 164.742 291.305 129.563C346.037 94.0751 373.017 77.1819 438.485 95.6839C477.157 107.007 513.73 124.542 546.775 147.601C587.306 175.818 599.681 193.763 619.669 220.34C628.95 232.716 636.407 245.309 647.514 256.973C692.439 304.62 735.693 337.416 835.442 358.394C933.305 378.907 1067.12 376.153 1177.67 342.645C1187.6 339.551 1197 336.457 1205.95 333.363C1330.08 288.717 1355.48 246.423 1435.49 237.233C1446.79 235.948 1458.15 235.286 1469.52 235.253C1515.19 234.944 1556.65 242.895 1609.9 256.911C1690.56 278.105 1755.78 307.467 1814.44 329.682C1835.63 337.726 1859.11 345.677 1885.38 352.793C1968.52 375.441 2090.27 394.531 2254 384.445" stroke="#1DDA0D" stroke-width="3" stroke-miterlimit="10"/>
<path d="M-813.894 562.473C-677.759 568.661 -499.144 566.309 -320.405 500.964C-195.223 455.204 -105.281 390.881 -31.9845 347.441C-8.87255 333.735 13.0328 318.884 35.2784 305.208C162.317 227.147 246.411 166.196 302.505 125.758C358.011 85.5359 388.146 65.5488 451.944 83.3082C490.389 94.6025 526.382 112.987 558.067 137.515C597.206 167.774 607.571 188.163 625.114 215.266C633.375 228.137 640.089 241.039 650.948 252.92C693.955 299.979 743.025 328.661 842.373 343.883C941.72 359.105 1074.08 350.69 1182.4 317.43C1192.24 314.336 1201.58 311.242 1210.46 308.148C1337.75 262.821 1363.52 223.62 1439.42 214.648C1450.6 213.341 1461.85 212.649 1473.11 212.575C1519.52 211.987 1560.86 219.722 1612.34 233.552C1689.41 253.972 1753.39 282.839 1815.21 306.137C1836.31 314.119 1859.61 322.04 1885.57 329.31C1967.9 352.391 2089.06 373.616 2251.03 368.387" stroke="#1DDA0D" stroke-width="3" stroke-miterlimit="10"/>
<path d="M-815.224 576.674C-685.618 585.244 -503.63 587.874 -316.321 520.797C-186.374 474.387 -93.7403 407.433 -21.8672 363.004C1.67791 348.431 23.8308 332.806 46.2002 318.203C172.249 235.594 255.91 167.526 313.767 121.642C370.17 77.0273 403.492 53.575 465.372 70.6228C506.46 81.9468 543.773 105.368 569.299 127.119C607.076 159.358 615.708 182.254 630.528 209.883C637.706 223.249 643.709 236.46 654.414 248.588C695.533 294.998 750.327 319.41 849.334 329.032C949.981 338.902 1081.07 324.917 1187.17 291.904C1196.88 288.81 1206.16 285.716 1215.01 282.622C1345.42 236.584 1371.54 200.477 1443.16 191.752C1454.26 190.426 1465.43 189.693 1476.61 189.555C1523.6 188.658 1564.94 196.207 1614.97 209.759C1688.42 229.437 1751.1 257.777 1816.08 282.189C1837.09 290.079 1860.2 298.03 1885.82 305.394C1967.37 328.939 2087.95 352.299 2248.12 351.803" stroke="#1DDA0D" stroke-width="3" stroke-miterlimit="10"/>
<path d="M-816.586 590.69C-693.6 601.611 -508.24 608.882 -312.268 540.412C-177.896 492.889 -82.2308 423.77 -11.7191 378.257C12.1974 362.787 34.6905 346.42 56.9981 330.888C182.18 243.917 265.439 168.485 325.06 117.404C382.391 68.2715 418.56 41.5395 479.016 57.8138C518.65 68.5809 555.778 93.2399 580.715 116.599C617.131 150.819 623.691 176.189 636.097 204.376C642.285 218.237 647.514 231.695 658.096 244.071C697.327 289.986 757.938 309.911 856.574 314.212C958.675 318.636 1088.34 299.175 1192.21 266.379C1201.84 263.306 1211.05 260.212 1219.84 257.097C1353.44 210.44 1379.89 177.365 1447.31 168.888C1458.31 167.526 1469.39 166.751 1480.47 166.567C1528.12 165.422 1569.46 172.755 1617.88 185.997C1687.68 204.902 1749.22 232.871 1817.38 258.273C1838.29 266.131 1861.19 274.021 1886.53 281.508C1967.28 305.518 2087.26 331.012 2245.68 335.406" stroke="#1DDA0D" stroke-width="3" stroke-miterlimit="10"/>
<path d="M-817.947 604.489C-701.614 617.7 -512.695 630.076 -308.215 559.812C-169.171 511.576 -70.6903 439.796 -1.57087 393.387C22.7168 377.081 45.4576 359.91 67.8579 343.45C192.143 252.054 275.154 169.382 336.322 112.917C394.644 59.2369 433.782 29.1015 492.413 44.6642C530.624 54.8434 567.597 80.771 591.884 105.801C627.001 142.001 631.487 169.908 641.388 198.621C646.4 213.008 651.072 226.745 661.468 239.337C699.06 284.633 765.457 303.197 863.69 299.02C966.967 294.627 1095.49 273.062 1197.16 240.513C1206.69 237.44 1215.83 234.346 1224.57 231.231C1361.39 184.141 1388.12 153.882 1451.33 145.652C1462.25 144.279 1473.24 143.473 1484.25 143.238C1532.55 141.877 1573.97 148.931 1620.63 161.802C1686.69 180.119 1747.14 207.748 1818.43 234.078C1839.25 241.874 1861.96 249.764 1886.96 257.375C1966.94 281.849 2086.34 309.478 2242.95 318.698" stroke="#1DDA0D" stroke-width="3" stroke-miterlimit="10"/>
<path d="M-819.432 618.133C-709.72 633.603 -517.274 651.146 -304.285 579.056C-160.57 530.109 -59.4589 455.699 8.42286 408.238C33.1747 391.035 56.1628 373.152 78.5632 355.64C202.013 259.727 284.56 170.001 347.492 108.122C406.927 49.955 449.098 16.6019 506.089 31.3911C542.845 40.9824 579.663 68.1476 603.332 94.8486C637.149 132.966 639.47 163.411 647.05 192.618C650.949 207.531 655.002 221.516 665.243 234.387C700.823 279.064 772.727 290.079 870.775 283.643C975.414 276.867 1102.58 246.763 1202.02 214.462C1211.3 211.368 1220.58 208.274 1229.21 205.18C1369.15 157.378 1396.29 130.182 1455.29 122.23C1466.12 120.82 1477.01 119.973 1487.93 119.693C1536.88 118.084 1578.15 124.922 1623.32 137.545C1685.91 154.965 1745.04 181.913 1819.45 209.511C1840.21 217.246 1862.77 224.981 1887.52 232.871C1966.69 257.623 2085.53 287.542 2240.23 301.588" stroke="#1DDA0D" stroke-width="3" stroke-miterlimit="10"/>
<path d="M-820.639 631.623C-717.578 649.475 -521.637 672.061 -300.077 598.177C-151.567 548.519 -47.9185 471.324 18.602 423.027C43.6013 404.896 67.0537 386.332 89.4541 367.954C212.254 267.957 294.275 170.558 358.63 103.357C419.024 40.5184 463.98 3.9476 519.517 18.0561C554.819 27.0596 591.544 55.4623 614.564 83.8032C647.112 124.025 647.205 156.821 652.465 186.585C655.156 202.055 658.653 216.256 668.708 229.375C702.494 273.433 780.091 279.745 877.768 268.204C983.675 255.828 1109.63 220.402 1206.81 188.318C1216.09 185.224 1225.16 182.13 1233.79 179.283C1376.89 130.77 1404.33 106.544 1459.16 98.8399C1469.98 97.4496 1480.86 96.6234 1491.77 96.3647C1537.16 94.6554 1582.52 100.404 1626.05 113.382C1685.02 130.058 1742.94 156.481 1820.5 185.193C1841.17 192.835 1863.51 200.663 1887.86 208.583C2001.69 245.01 2118.74 270.506 2237.42 284.726" stroke="#1DDA0D" stroke-width="3" stroke-miterlimit="10"/>
<path d="M-822 645.02C-725.561 665.193 -526.092 692.884 -296.024 617.174C-142.965 566.804 -36.5635 487.01 28.8431 437.723C319.151 218.763 411.042 -25.7855 533.161 4.56638C567.009 12.982 603.642 42.6223 625.98 72.6339C673.689 136.679 643.616 185.255 672.39 224.239C742.932 319.843 1060.25 213.07 1238.59 153.077C1412.47 94.5702 1418.9 75.7279 1495.39 72.6339C1628.89 67.1576 1698.29 120.776 1888.32 184.017C2001.31 221.438 2117.22 249.38 2234.85 267.555" stroke="#1DDA0D" stroke-width="3" stroke-miterlimit="10"/>
<path d="M-822 653.869C-722.993 675.929 -529.712 701.206 -309.762 628.746C-157.94 578.592 -56.0556 498.025 14.1467 446.201C294.585 239.43 382.051 15.488 506.46 35.4751C555.066 43.2719 604.415 58.8965 636.995 82.8439C701.009 129.934 677.216 172.043 714.344 209.697C795.623 292.183 1091.59 199.58 1261.39 144.538C1426.79 90.7336 1433.48 75.5112 1514.32 78.6052C1648.66 83.7412 1714.9 131.203 1893.92 191.907C2005.61 229.76 2120.62 257.014 2237.42 273.309" stroke="#1DDA0D" stroke-width="3" stroke-miterlimit="10"/>
<path d="M-822 663.089C-656.886 701.098 -484.532 693.342 -323.499 640.657C-172.915 590.751 -75.7333 509.349 -0.549683 455.019C269.647 259.912 354.236 53.2346 479.79 66.7244C543.495 73.593 603.394 75.3256 648.009 93.4254C724.554 124.365 709.641 158.708 756.298 195.527C845.436 265.791 1122.93 186.43 1284.22 136.339C1440.87 87.2374 1447.83 75.3256 1533.29 84.917C1668.12 100.016 1731.52 142.279 1899.52 200.168C2009.88 238.427 2123.95 264.995 2239.86 279.435" stroke="#1DDA0D" stroke-width="3" stroke-miterlimit="10"/>
<path d="M-822 679.487C-661.694 717.952 -493.853 711.118 -337.205 659.747C-187.89 610.058 -95.38 527.82 -15.2461 471.015C244.153 287.17 327.319 119.601 453.089 105.152C531.769 96.1172 601.352 99.83 659.055 111.154C746.243 128.233 741.169 152.582 798.284 188.503C892.836 247.97 1154.34 180.768 1307.03 135.318C1455.17 91.2288 1462.07 82.0396 1552.22 98.3758C1687.49 122.88 1748.1 160.472 1905.15 215.576C2014.2 254.287 2127.37 280.182 2242.4 292.74" stroke="#1DDA0D" stroke-width="3" stroke-miterlimit="10"/>
<path d="M-822 704.455C-666.514 743.355 -503.19 737.412 -350.942 687.315C-202.865 637.811 -115.058 554.738 -29.9424 495.488C218.473 322.566 300.773 170.992 426.419 152.056C519.764 138.01 602.188 116.538 670.069 137.36C763.476 166.01 766.973 167.99 840.238 189.958C928.385 256.819 1185.71 183.491 1329.86 142.774C1469.4 103.481 1476.27 96.9836 1571.19 120.343C1706.8 153.727 1764.66 187.266 1910.75 239.461C2018.48 278.612 2130.78 303.826 2244.9 314.49" stroke="#1DDA0D" stroke-width="3" stroke-miterlimit="10"/>
<path d="M-822 730.011C-671.342 769.372 -512.524 764.408 -364.618 715.717C-217.778 666.461 -134.704 582.459 -44.5769 520.796C192.607 358.486 273.979 221.516 399.594 199.796C507.883 181.109 597.98 151.468 681.146 164.432C788.383 181.14 797.882 174.58 882.254 192.278C974.733 251.775 1217.05 186.802 1352.54 151.066C1483.48 116.568 1490.34 112.453 1590 143.146C1726.14 184.976 1781.05 214.957 1916.23 264.182C2022.65 303.775 2134.08 328.31 2247.28 337.076" stroke="#1DDA0D" stroke-width="3" stroke-miterlimit="10"/>
<path d="M-822 756.063C-676.204 795.805 -521.936 791.77 -378.417 744.46C-232.814 695.421 -154.537 610.491 -59.3351 546.446C166.525 394.501 246.968 271.391 373.048 247.877C495.971 224.951 595.381 206.139 692.099 191.814C811.526 174.116 828.667 181.449 924.147 194.908C1021.11 247.227 1248.4 190.576 1375.5 159.699C1497.83 129.996 1504.7 128.078 1609.09 166.289C1745.47 216.225 1797.67 243.112 1921.83 289.274C2026.95 329.294 2137.52 353.151 2249.79 360.034" stroke="#1DDA0D" stroke-width="3" stroke-miterlimit="10"/>
<path d="M-822 782.454C-706.811 815.776 -551.277 827.008 -392.123 773.575C-247.665 725.061 -174.307 638.832 -74.0316 572.466C140.288 430.638 219.896 320.926 346.347 296.328C484.214 269.535 593.865 243.329 703.144 219.567C834.019 191.071 862.484 171.177 966.132 197.909C1073.52 225.6 1279.74 194.815 1398.3 168.702C1512.03 143.764 1518.96 143.95 1628.03 189.772C1765.09 247.536 1814.16 271.7 1927.58 314.707C1998.1 341.439 2104.47 376.401 2252.45 383.331" stroke="#1DDA0D" stroke-width="3" stroke-miterlimit="10"/>
<path d="M-822 809.31C-704.12 844.458 -554.897 853.337 -405.86 803.122C-262.64 754.856 -194.14 667.513 -88.728 598.919C113.896 467.023 192.36 370.398 319.677 345.213C472.519 314.954 592.627 281.137 714.159 247.753C856.822 208.552 892.433 178.726 1008.09 201.343C1118.32 223.001 1311.05 199.239 1421.13 178.138C1526.33 157.966 1533.5 159.822 1646.99 213.719C1784.74 279.095 1830.59 300.846 1933.18 340.572C2002.68 367.49 2107.47 402.452 2254.96 407.093" stroke="#1DDA0D" stroke-width="3" stroke-miterlimit="10"/>
<path d="M-822 836.475C-701.335 873.603 -558.517 879.976 -419.598 833.01C-277.615 784.991 -214.034 696.504 -103.424 625.713C87.412 503.563 164.823 419.902 292.976 394.439C460.948 361.055 591.544 319.379 725.173 276.28C879.872 226.405 922.414 187.328 1050.04 205.118C1163.28 220.897 1342.36 204.159 1443.93 187.916C1540.4 172.446 1548.05 176.004 1665.93 238.007C1804.54 310.87 1846.99 330.424 1938.78 366.778C2007.29 393.913 2110.44 428.998 2257.46 431.164" stroke="#1DDA0D" stroke-width="3" stroke-miterlimit="10"/>
<path d="M-822 864.043C-698.767 902.934 -562.106 906.987 -433.335 863.269C-292.59 815.467 -233.99 725.742 -118.121 652.879C60.8039 540.32 135.059 454.524 266.306 444.035C452.377 429.153 590.554 358.022 736.188 305.177C903.046 244.659 958.954 165.948 1091.99 209.264C1203.13 245.556 1373.55 209.264 1466.77 198.064C1554.58 187.39 1562.68 192.433 1684.89 262.635C1824.46 342.862 1863.32 360.498 1944.38 393.356C2011.86 420.737 2113.44 455.854 2259.97 455.637" stroke="#1DDA0D" stroke-width="3" stroke-miterlimit="10"/>
<path d="M-822 892.507C-696.075 933.286 -565.726 934.833 -447.041 894.611C-307.565 847.025 -254.008 755.939 -132.817 681.126C34.2575 578.004 107.492 507.338 239.605 494.714C440.713 475.439 589.688 397.78 747.233 335.158C926.374 263.996 986.614 180.119 1133.98 214.493C1250.87 241.782 1404.95 215.668 1489.57 209.295C1568.75 203.323 1577.56 209.821 1703.83 288.377C1844.51 375.875 1879.66 391.747 1950.02 421.016C2016.44 448.676 2116.44 483.762 2262.51 481.163" stroke="#1DDA0D" stroke-width="3" stroke-miterlimit="10"/>
</svg>
